# xmcd
#
# Track frame offsets:
#	150
#	16221
#	28367
#	43208
#	59592
#	73644
#	91599
#	109927
#	127091
#	140507
#	162199
#	178752
#	189883
#
# Disc length: 2686 seconds
#
# Revision: 1
# Processed by: cddbd v1.5.2PL0 Copyright (c) Steve Scherf et al.
# Submitted via: audiograbber 1.83.01
#
DISCID=b80a7c0d
DTITLE=Paul Bast - Can What You Can't
DYEAR=2006
DGENRE=Bluegrass
TTITLE0=Waiting For the Rain
TTITLE1=Little Hummingbird
TTITLE2=Triangles of Toast
TTITLE3=Last of the Great Goodbyes
TTITLE4=Short List
TTITLE5=Eat What You Can
TTITLE6=My Coat
TTITLE7=Scooterpie in the Willows
TTITLE8=I Won't Doubt It
TTITLE9=Dust, Sand and Ashes
TTITLE10=Chaco Canyon
TTITLE11=Goin' Down River
TTITLE12=Apples
EXTD=
EXTT0=
EXTT1=
EXTT2=
EXTT3=
EXTT4=
EXTT5=
EXTT6=
EXTT7=
EXTT8=
EXTT9=
EXTT10=
EXTT11=
EXTT12=
PLAYORDER=
